<svg width="59" height="50" viewBox="0 0 59 50" fill="none" xmlns="http://www.w3.org/2000/svg">
<path fill-rule="evenodd" clip-rule="evenodd" d="M39.6841 0.0697301C39.3836 -0.0767996 39.1376 0.0713884 39.1376 0.399422V40.7231L57.2363 49.5515C58.1381 49.9916 58.8761 49.5466 58.8761 48.5629V9.74702C58.8761 9.55361 58.7641 9.37678 58.5867 9.29025L39.6841 0.0697301" fill="#97A3D1"/>
<path fill-rule="evenodd" clip-rule="evenodd" d="M19.4014 31.1078L38.8196 0.323775C38.9957 0.0445846 39.3857 -0.0639559 39.6864 0.0827245L58.4436 9.23239C58.6772 9.34621 58.7603 9.63112 58.6236 9.84805L39.1397 40.7361L19.4014 31.1078" fill="#929DC5"/>
<path fill-rule="evenodd" clip-rule="evenodd" d="M2.61885 0.935642C1.42033 0.352729 1.0143 0.784034 1.71669 1.89398L20.1151 30.9724L39.7907 40.5406L20.2424 9.64504C20.1592 9.51365 20.04 9.40744 19.8981 9.33837L2.61885 0.935642" fill="#97A3D1"/>
<path fill-rule="evenodd" clip-rule="evenodd" d="M19.8953 48.8458C19.8953 49.826 19.1516 50.2693 18.2427 49.8309L1.10179 41.5648C0.49576 41.2727 0 40.4989 0 39.8454V1.44538C0 0.791916 0.49576 0.49628 1.10179 0.788611L19.65 9.73339C19.8003 9.8058 19.8953 9.95407 19.8953 10.1162V48.8458" fill="#929DC5"/>
</svg>
